<?xml version="1.0" encoding="utf-8"?>
<!-- Generator: Adobe Illustrator 23.0.2, SVG Export Plug-In . SVG Version: 6.00 Build 0)  -->
<svg version="1.1" id="Layer_1" xmlns="http://www.w3.org/2000/svg" xmlns:xlink="http://www.w3.org/1999/xlink" x="0px" y="0px"
	 viewBox="0 0 31.96 32.03" style="enable-background:new 0 0 31.96 32.03;" xml:space="preserve">
<style type="text/css">
	.st0{fill:#FF000E;}
</style>
<path class="st0" d="M31.44,16.01c0,4.18,0,8.36,0,12.54c0,1.74-1.16,2.89-2.9,2.89c-8.38,0-16.77,0-25.15,0
	c-1.69,0-2.85-1.13-2.85-2.82c-0.01-8.41-0.01-16.82,0-25.23c0-1.67,1.16-2.8,2.84-2.8c8.41,0,16.82,0,25.23,0
	c1.67,0,2.84,1.18,2.84,2.84C31.44,7.62,31.44,11.81,31.44,16.01z M1.77,9.43c0,0.16,0,0.3,0,0.44c0,6.2,0.01,12.41-0.01,18.61
	c0,1.12,0.78,1.74,1.75,1.74c8.34-0.02,16.67-0.01,25.01-0.01c1.1,0,1.7-0.59,1.7-1.69c0-6.23,0-12.46,0-18.68c0-0.13,0-0.26,0-0.4
	C20.71,9.43,11.26,9.43,1.77,9.43z M30.2,8.16c0-0.14,0-0.25,0-0.36c0-1.43,0-2.87,0-4.3c0-1.1-0.6-1.68-1.7-1.68
	c-8.36,0-16.72,0-25.08,0c-1.07,0-1.65,0.58-1.65,1.65c0,1.43,0,2.87,0,4.3c0,0.13,0.01,0.25,0.02,0.39
	C11.27,8.16,20.71,8.16,30.2,8.16z"/>
<path class="st0" d="M9.33,6.88c-1.05,0-1.84-0.8-1.84-1.86c0-1.05,0.81-1.84,1.86-1.84c1.05,0,1.84,0.81,1.83,1.86
	C11.19,6.1,10.4,6.88,9.33,6.88z M9.32,5.64c0.37,0.01,0.62-0.21,0.64-0.57c0.02-0.38-0.23-0.65-0.6-0.66
	C9,4.41,8.74,4.66,8.73,5.01C8.72,5.38,8.96,5.63,9.32,5.64z"/>
<path class="st0" d="M22.62,6.88c-1.06,0-1.85-0.79-1.84-1.85c0-1.05,0.8-1.85,1.85-1.85c1.04,0,1.85,0.82,1.85,1.86
	C24.47,6.08,23.67,6.88,22.62,6.88z M22.01,5.03c0,0.37,0.23,0.61,0.59,0.62c0.38,0.01,0.64-0.25,0.63-0.62
	c-0.01-0.35-0.27-0.61-0.62-0.61C22.26,4.42,22.01,4.66,22.01,5.03z"/>
<path class="st0" d="M10.69,16.2c-0.06,0.01-0.1,0.02-0.12,0.03c-0.03,0.01-0.05,0.01-0.07,0.01c-0.13,0-0.24-0.05-0.32-0.15
	c-0.08-0.1-0.12-0.23-0.12-0.4c0-0.14,0.04-0.26,0.11-0.36c0.07-0.1,0.18-0.18,0.31-0.23l1.89-0.68c0.05-0.02,0.09-0.03,0.14-0.04
	c0.05-0.01,0.09-0.01,0.14-0.01c0.08,0,0.14,0.05,0.19,0.15c0.05,0.1,0.07,0.24,0.07,0.41v9.26h1.02c0.38,0,0.62,0.04,0.72,0.12
	c0.1,0.08,0.15,0.24,0.15,0.47c0,0.21-0.04,0.36-0.13,0.46c-0.08,0.1-0.21,0.15-0.38,0.15h-3.8c-0.17,0-0.3-0.05-0.38-0.15
	c-0.08-0.1-0.13-0.26-0.13-0.46c0-0.23,0.05-0.38,0.15-0.47c0.1-0.08,0.34-0.12,0.72-0.12h1.05v-8.36L10.69,16.2z"/>
<g>
	<path class="st0" d="M19.91,25.12c-0.04,0.14-0.08,0.23-0.11,0.27c-0.03,0.04-0.1,0.06-0.19,0.06h-0.13h-0.53
		c-0.1,0-0.18-0.02-0.23-0.07c-0.06-0.05-0.09-0.11-0.09-0.19c0-0.05,0-0.09,0.01-0.13c0.01-0.04,0.02-0.09,0.03-0.15l2.92-9.22
		h-3.77c-0.01,0.27-0.07,0.47-0.16,0.6c-0.09,0.13-0.22,0.19-0.39,0.19c-0.17,0-0.29-0.05-0.37-0.15c-0.08-0.1-0.12-0.25-0.12-0.46
		c0-0.06,0-0.1,0-0.13c0-0.03,0.01-0.05,0.01-0.08l0.07-0.78c0.01-0.16,0.07-0.29,0.15-0.37c0.09-0.09,0.2-0.13,0.35-0.13h4.91
		c0.14,0,0.25,0.04,0.32,0.11c0.07,0.07,0.1,0.19,0.1,0.34v0.29c0,0.07-0.01,0.16-0.04,0.27c-0.02,0.11-0.06,0.26-0.12,0.45
		L19.91,25.12z"/>
</g>
</svg>
