<?xml version="1.0" encoding="utf-8"?>
<!-- Generator: Adobe Illustrator 23.0.2, SVG Export Plug-In . SVG Version: 6.00 Build 0)  -->
<svg version="1.1" id="Layer_1" xmlns="http://www.w3.org/2000/svg" xmlns:xlink="http://www.w3.org/1999/xlink" x="0px" y="0px"
	 viewBox="0 0 35.1 25.1" style="enable-background:new 0 0 35.1 25.1;" xml:space="preserve">
<style type="text/css">
	.st0{fill:#106CA9;}
</style>
<path class="st0" d="M35.1,23c-4-3.4-8-6.8-12-10.2c0,0-0.1,0-0.2-0.1c0.2-0.1,0.2-0.2,0.3-0.3C27.1,9.1,31,5.8,34.9,2.4
	c0.1-0.1,0.2-0.1,0.2-0.2C35.1,9.2,35.1,16.1,35.1,23z"/>
<path class="st0" d="M17.5,15.1C11.9,10.3,6.4,5.5,0.8,0.7C1.3,0.2,1.9,0,2.5,0c0.1,0,0.2,0,0.3,0c9.8,0,19.7,0,29.5,0
	c0.7,0,1.4,0.1,2,0.7C28.7,5.5,23.2,10.3,17.5,15.1z"/>
<path class="st0" d="M17.5,17.6c1.5-1.3,2.9-2.5,4.3-3.8c4.1,3.5,8.3,7.1,12.4,10.6c-0.5,0.5-1,0.6-1.6,0.7c-0.1,0-0.2,0-0.3,0
	c-9.8,0-19.7,0-29.6,0c-0.7,0-1.4-0.2-2-0.7c4.1-3.5,8.3-7.1,12.4-10.6C14.6,15,16.1,16.3,17.5,17.6z"/>
<path class="st0" d="M0,23c0-7,0-13.9,0-20.8c4,3.5,8.1,7,12.1,10.5C8.1,16.2,4,19.6,0,23z"/>
</svg>
