<?xml version="1.0" encoding="utf-8"?>
<!-- Generator: Adobe Illustrator 23.0.2, SVG Export Plug-In . SVG Version: 6.00 Build 0)  -->
<svg version="1.1" id="Layer_1" xmlns="http://www.w3.org/2000/svg" xmlns:xlink="http://www.w3.org/1999/xlink" x="0px" y="0px"
	 viewBox="0 0 17.6 31.1" style="enable-background:new 0 0 17.6 31.1;" xml:space="preserve">
<style type="text/css">
	.st0{fill:#106CA9;}
</style>
<path class="st0" d="M15.6,0.1c0.4,0.1,0.9,0.3,1.2,0.6c0.5,0.5,0.7,1.1,0.7,1.7c0,0.8,0,1.6,0,2.5c0,7.9,0,15.8,0,23.7
	c0,1-0.4,1.8-1.3,2.2c-0.3,0.2-0.7,0.2-1.1,0.2c-4.3,0-8.6,0-12.9,0c-1.4,0-2.3-1-2.3-2.4c0-7.4,0-14.7,0-22.1c0-1.2,0-2.5,0-3.7
	s0.4-2.4,2-2.8C6.5,0.1,11.1,0.1,15.6,0.1z M1.7,3.9c0,6.7,0,13.3,0,20c4.7,0,9.4,0,14.1,0c0-6.7,0-13.3,0-20
	C11.2,3.9,6.5,3.9,1.7,3.9z M8.8,1.5c-1,0-2,0-3.1,0C5.5,1.4,5.3,1.6,5.3,2c0,0.4,0.1,0.6,0.5,0.6c2,0,4,0,6,0
	c0.4,0,0.5-0.2,0.5-0.5c0-0.4-0.1-0.5-0.5-0.5C10.8,1.5,9.8,1.5,8.8,1.5z M8.8,28.9c0.8,0,1.4-0.7,1.4-1.4c0-0.8-0.6-1.4-1.4-1.4
	c-0.8,0-1.5,0.7-1.4,1.4C7.4,28.2,8,28.9,8.8,28.9z"/>
</svg>
