<?xml version="1.0" encoding="utf-8"?>
<!-- Generator: Adobe Illustrator 23.0.2, SVG Export Plug-In . SVG Version: 6.00 Build 0)  -->
<svg version="1.1" id="Layer_1" xmlns="http://www.w3.org/2000/svg" xmlns:xlink="http://www.w3.org/1999/xlink" x="0px" y="0px"
	 viewBox="0 0 22.7 32.2" style="enable-background:new 0 0 22.7 32.2;" xml:space="preserve">
<style type="text/css">
	.st0{fill-rule:evenodd;clip-rule:evenodd;fill:#0060A0;}
</style>
<path class="st0" d="M11.3,31.6c-0.7-1-1.3-1.9-2-2.8C7,25.4,4.6,22,2.2,18.6c-1-1.4-1.5-2.9-1.7-4.5c-0.3-1.9-0.1-3.8,0.4-5.7
	c0.9-3,2.8-5.2,5.6-6.6c1.9-0.9,3.9-1.3,6-1c3.9,0.5,6.9,2.4,8.6,6c1.7,3.5,1.7,7.1,0.1,10.6c-0.3,0.6-0.7,1.2-1.1,1.8
	c-2.9,4.1-5.7,8.2-8.6,12.3C11.5,31.4,11.4,31.5,11.3,31.6 M11.4,15.3c2.2,0,4-1.8,4-3.9c0-2.2-1.8-4-4-4c-2.2,0-4,1.8-4,3.9
	C7.4,13.5,9.2,15.3,11.4,15.3"/>
</svg>
