<?xml version="1.0" encoding="utf-8"?>
<!-- Generator: Adobe Illustrator 23.0.2, SVG Export Plug-In . SVG Version: 6.00 Build 0)  -->
<svg version="1.1" id="Layer_1" xmlns="http://www.w3.org/2000/svg" xmlns:xlink="http://www.w3.org/1999/xlink" x="0px" y="0px"
	 viewBox="0 0 31.8 31.8" style="enable-background:new 0 0 31.8 31.8;" xml:space="preserve">
<style type="text/css">
	.st0{fill:#106CA9;}
</style>
<path class="st0" d="M0.5,7.4c0.1-0.5,0.1-1.1,0.2-1.6C1,4.8,1.4,3.8,2,3c0.5-0.6,1-1.2,1.6-1.8c1-0.9,2.4-0.9,3.4,0.1
	c1.6,1.6,3.2,3.1,4.7,4.7c1,1,1,2.5-0.1,3.6c-0.7,0.7-1.4,1.4-2.1,2.1c-0.1,0.1-0.2,0.1-0.3,0.2c0.9,1.6,1.7,3,2.8,4.4
	c1.8,2.2,3.9,4,6.4,5.5c0.5,0.3,0.9,0.5,1.4,0.8c0.2,0.1,0.3,0.1,0.4-0.1c0.7-0.7,1.4-1.4,2.1-2.1c0.7-0.7,1.6-1.1,2.6-0.7
	c0.4,0.1,0.8,0.4,1,0.6c1.6,1.5,3.1,3.1,4.6,4.6c1,1,1,2.4,0.1,3.4c-1,1.1-2.1,2-3.5,2.6c-1.4,0.6-2.9,0.6-4.4,0.3
	c-2.9-0.5-5.5-1.7-8-3.2c-3.4-2.1-6.2-4.9-8.9-7.9c-1.5-1.7-2.8-3.5-3.9-5.5c-0.9-1.7-1.5-3.5-1.6-5.4c0-0.1,0-0.2-0.1-0.3
	C0.5,8.5,0.5,8,0.5,7.4z"/>
</svg>
