<?xml version="1.0" encoding="utf-8"?>
<!-- Generator: Adobe Illustrator 23.0.2, SVG Export Plug-In . SVG Version: 6.00 Build 0)  -->
<svg version="1.1" id="Layer_1" xmlns="http://www.w3.org/2000/svg" xmlns:xlink="http://www.w3.org/1999/xlink" x="0px" y="0px"
	 viewBox="0 0 149.24 149.24" style="enable-background:new 0 0 149.24 149.24;" xml:space="preserve">
<style type="text/css">
	.st0{fill-rule:evenodd;clip-rule:evenodd;fill:#00BFF3;}
</style>
<g>
	<path class="st0" d="M137.56,80.21c-0.08,0.18-0.18,0.36-0.24,0.55c-0.83,2.6-2.59,4.1-5.29,4.46c-0.61,0.08-1.23,0.08-1.84,0.08
		c-37.04,0-74.08,0.01-111.12-0.01c-0.98,0-1.98-0.05-2.92-0.29c-2.6-0.67-4.45-3.04-4.45-5.81c-0.03-14.14-0.04-28.27,0.01-42.41
		c0.01-3.39,2.66-5.92,6.05-6.03c0.49-0.02,0.98-0.01,1.47-0.01c36.84,0,73.67,0.03,110.51-0.04c3.87-0.01,6.59,1.18,7.83,4.99
		V80.21z M74.65,34.95c-18.6,0-37.2,0-55.8,0c-2.37,0-2.98,0.61-2.98,2.97c0,13.4,0,26.79,0,40.19c0,2.42,0.55,2.99,2.95,2.99
		c37.2,0,74.4,0,111.6,0c2.4,0,2.96-0.57,2.96-2.99c0-13.36,0-26.71,0-40.07c0-2.61-0.48-3.1-3.05-3.1
		C111.77,34.95,93.21,34.95,74.65,34.95z"/>
	<path class="st0" d="M74.35,113.52c-1.29-0.08-2.03-0.62-2.32-1.62c-0.28-0.95,0.21-1.59,1.04-2.12c0.91-0.58,1.81-1.19,2.58-1.92
		c0.93-0.9,0.94-1.89,0.05-2.82c-0.65-0.67-1.5-1.15-2.24-1.74c-1.41-1.13-2.99-2.14-4.17-3.46c-2.2-2.47-2.12-5.66,0.14-8.08
		c1.05-1.12,2.38-2.03,3.69-2.89c0.99-0.65,2.08-0.34,2.64,0.52c0.63,0.97,0.42,2.12-0.47,2.83c-0.87,0.7-1.78,1.37-2.53,2.17
		c-1,1.08-0.98,2.12,0.13,3.11c0.82,0.73,1.8,1.33,2.77,1.87c2.14,1.2,3.9,2.69,4.68,5.03c0.7,2.1,0.31,4.09-1.16,5.7
		c-1.09,1.2-2.51,2.12-3.82,3.11C75.05,113.45,74.57,113.46,74.35,113.52"/>
	<path class="st0" d="M98.43,118.52c-1.33-0.03-2.08-0.57-2.39-1.55c-0.31-0.99,0.19-1.68,1.09-2.21c0.79-0.46,1.56-0.97,2.22-1.58
		c1.3-1.2,1.28-2.35-0.04-3.55c-0.54-0.5-1.24-0.83-1.82-1.29c-1.47-1.19-3.11-2.25-4.33-3.65c-2.09-2.41-1.96-5.54,0.22-7.89
		c1.05-1.13,2.37-2.04,3.67-2.91c1-0.67,2.09-0.39,2.66,0.45c0.65,0.96,0.42,2.2-0.5,2.92c-0.81,0.64-1.65,1.26-2.36,2
		c-1.15,1.21-1.11,2.27,0.15,3.39c0.73,0.65,1.67,1.07,2.46,1.67c1.28,0.97,2.71,1.84,3.71,3.03c2.08,2.47,1.98,5.62-0.2,8.02
		c-1.01,1.11-2.34,1.94-3.57,2.85C99.09,118.44,98.62,118.47,98.43,118.52"/>
	<path class="st0" d="M51.38,118.52c-1.22-0.06-1.95-0.56-2.25-1.56c-0.31-1.02,0.22-1.65,1.06-2.19c0.88-0.57,1.74-1.21,2.49-1.94
		c0.85-0.83,0.85-1.86,0.03-2.71c-0.64-0.66-1.45-1.15-2.17-1.75c-1.4-1.16-2.97-2.18-4.15-3.53c-2.05-2.36-2.01-5.53,0.06-7.87
		c1.06-1.19,2.42-2.15,3.76-3.05c0.96-0.65,1.97-0.31,2.55,0.59c0.67,1.03,0.48,2.03-0.47,2.77c-0.8,0.63-1.63,1.23-2.32,1.97
		c-1.2,1.28-1.15,2.39,0.19,3.56c0.72,0.63,1.59,1.13,2.44,1.61c1.66,0.94,3.11,2.09,4.04,3.78c1.2,2.18,1.29,4.45-0.23,6.39
		c-1.12,1.43-2.72,2.5-4.14,3.68C52.02,118.48,51.59,118.47,51.38,118.52"/>
	<path class="st0" d="M74.18,76.52c-17.07,0-34.13,0-51.2,0c-0.53,0-1.07,0.01-1.59-0.07c-1.08-0.16-1.72-0.93-1.71-1.95
		c0.01-1.03,0.66-1.76,1.76-1.91c0.44-0.06,0.9-0.06,1.35-0.06c34.26,0,68.52,0,102.77,0c2.19,0,3.09,0.57,3.12,1.97
		c0.02,1.43-0.91,2.03-3.17,2.03C108.39,76.52,91.28,76.52,74.18,76.52"/>
	<path class="st0" d="M74.16,67.52c-17.07,0-34.14,0-51.21,0c-0.53,0-1.07,0.01-1.59-0.05c-1.05-0.12-1.59-0.78-1.68-1.73
		c-0.09-0.99,0.31-1.78,1.39-2.07c0.46-0.13,0.97-0.14,1.45-0.14c34.42-0.01,68.85-0.01,103.27-0.01c1.2,0,2.33,0.08,2.77,1.41
		c0.41,1.25-0.36,2.4-1.72,2.55c-0.49,0.05-0.98,0.04-1.47,0.04C108.3,67.52,91.23,67.52,74.16,67.52"/>
	<path class="st0" d="M74.09,49.51c-2.66,0-5.33,0.01-7.99,0c-1.1,0-2.03-0.29-2.35-1.46c-0.35-1.3,0.39-2.34,1.8-2.5
		c0.24-0.03,0.49-0.03,0.74-0.03c5.24,0,10.49,0,15.73,0c0.97,0,1.91,0.08,2.4,1.05c0.74,1.48-0.24,2.89-2.1,2.92
		C79.58,49.54,76.84,49.51,74.09,49.51"/>
</g>
</svg>
