<?xml version="1.0" encoding="utf-8"?>
<!-- Generator: Adobe Illustrator 23.0.2, SVG Export Plug-In . SVG Version: 6.00 Build 0)  -->
<svg version="1.1" id="Layer_1" xmlns="http://www.w3.org/2000/svg" xmlns:xlink="http://www.w3.org/1999/xlink" x="0px" y="0px"
	 viewBox="0 0 149.24 149.24" style="enable-background:new 0 0 149.24 149.24;" xml:space="preserve">
<style type="text/css">
	.st0{fill-rule:evenodd;clip-rule:evenodd;fill:#00BFF3;}
</style>
<g>
	<path class="st0" d="M72.06,126.03c-1.16-0.3-2.35-0.53-3.48-0.92c-13.73-4.61-17.39-22.19-6.64-31.86
		c0.52-0.46,0.64-0.93,0.64-1.57c-0.01-18.77-0.02-37.55,0-56.32c0-5.81,3.76-10.53,9.39-11.86c7.11-1.69,14.3,3.7,14.63,10.97
		c0.03,0.6,0.03,1.2,0.03,1.81c0,18.4,0.01,36.81-0.02,55.21c0,0.8,0.22,1.33,0.81,1.9c5.56,5.33,7.43,11.82,5.28,19.15
		c-2.17,7.37-7.35,11.76-14.93,13.29c-0.23,0.05-0.44,0.13-0.67,0.19H72.06z M66,88.38c0,1.58-0.03,3.08,0.01,4.58
		c0.03,0.95-0.32,1.62-1.06,2.24c-4.56,3.8-6.49,8.67-5.61,14.54c1.03,6.8,6.5,11.95,13.47,12.84c6.61,0.85,13.24-2.96,15.96-9.17
		c2.76-6.29,1.04-13.63-4.29-18c-0.96-0.78-1.33-1.61-1.33-2.82c0.03-18.74,0.02-37.47,0.02-56.21c0-0.5,0-1-0.02-1.51
		c-0.15-4.29-3.43-7.74-7.79-8.2c-4.11-0.43-8.36,2.39-9.05,6.47c-0.49,2.89-0.31,5.9-0.43,8.97h3.5v3.4h-3.31v5.15h3.29v3.46h-3.3
		v5.12h3.31v3.42h-3.29v5.16h3.29v3.43h-3.32v5.12h3.3v3.46h-3.28v5.12h3.29v3.42H66z"/>
	<path class="st0" d="M72.48,99.05V39.03h3.38v1.29c0,19.23,0,38.46-0.01,57.68c0,0.72,0.12,1.09,0.9,1.34
		c4.03,1.27,6.48,5.31,5.82,9.45c-0.67,4.17-4.23,7.24-8.4,7.24c-4.19,0-7.7-3.08-8.39-7.37c-0.65-4.02,1.87-8.04,5.85-9.35
		C71.87,99.23,72.13,99.16,72.48,99.05 M74.17,102.36c-2.81,0-5.06,2.25-5.08,5.07c-0.02,2.85,2.27,5.19,5.09,5.19
		c2.78,0,5.05-2.28,5.07-5.09C79.27,104.63,77.03,102.36,74.17,102.36"/>
</g>
</svg>
