<?xml version="1.0" encoding="utf-8"?>
<!-- Generator: Adobe Illustrator 23.0.2, SVG Export Plug-In . SVG Version: 6.00 Build 0)  -->
<svg version="1.1" id="Layer_1" xmlns="http://www.w3.org/2000/svg" xmlns:xlink="http://www.w3.org/1999/xlink" x="0px" y="0px"
	 viewBox="0 0 149.24 149.24" style="enable-background:new 0 0 149.24 149.24;" xml:space="preserve">
<style type="text/css">
	.st0{fill-rule:evenodd;clip-rule:evenodd;fill:#00BFF3;}
	.st1{fill:none;}
</style>
<path class="st0" d="M124.03,77.74c-0.25,1.83-0.42,3.67-0.76,5.48c-2.77,14.95-10.63,26.39-23.46,34.29
	c-7.96,4.9-16.69,7.2-26,6.97c-14.55-0.36-26.73-6.1-36.37-17.1c-6.94-7.91-10.84-17.24-11.95-27.74
	c-2.64-25.04,14.23-48.5,38.66-53.74c2.16-0.46,4.38-0.66,6.57-0.99c0.28-0.04,0.56-0.11,0.84-0.17h6.17
	c1.65,0.22,3.31,0.38,4.95,0.66c9.41,1.61,17.73,5.59,24.83,12.04c8.47,7.7,13.77,17.24,15.77,28.6c0.32,1.81,0.51,3.65,0.76,5.47
	V77.74z M28.53,74.64c0.01,25.65,20.68,46.55,46.06,46.56c25.42,0.01,46.14-20.92,46.14-46.6c0-25.65-20.67-46.53-46.08-46.54
	C49.22,28.04,28.53,48.94,28.53,74.64z"/>
<rect x="-667.79" y="-2243.29" class="st1" width="1200" height="4580"/>
<path class="st0" d="M63.02,41.75c0.37,1.01,0.73,1.97,1.12,3.02c-8.79,3.69-14.93,9.99-18.18,19.13
	c-1.97,5.55-2.3,11.25-1.14,17.07c1.43-1.39,2.83-2.71,4.16-4.09c0.2-0.21,0.14-0.73,0.13-1.11c-0.2-10.7,4.19-18.81,13.04-24.43
	c0.16-0.1,0.33-0.18,0.58-0.32c0.51,0.96,1.01,1.89,1.53,2.87c-7.54,4.62-11.56,11.36-11.95,20.53c0.38-0.15,0.61-0.22,0.82-0.33
	c3.32-1.85,6.86-2.92,10.62-3.29c0.29-0.03,0.7-0.32,0.81-0.59c1.09-2.58,2.79-4.56,5.18-5.96c0.3-0.18,0.51-0.78,0.51-1.19
	c0.03-9.12,0.07-18.24,0-27.36c-0.02-2.92,0.91-3.32,3.46-2.79c2.91,0.6,5.18,2.31,7.04,4.59c4.4,5.4,6.13,11.72,5.79,18.68
	c-0.17,3.53-1.04,6.89-2.49,10.1c-0.12,0.27-0.08,0.78,0.1,1.01c1.67,2.24,2.5,4.76,2.45,7.57c-0.01,0.64,0.32,0.84,0.75,1.09
	c7.86,4.65,15.72,9.3,23.57,13.97c0.48,0.29,1.08,0.66,1.23,1.13c0.17,0.53,0.07,1.33-0.22,1.81c-1.74,2.88-4.47,4.33-7.57,5.01
	c-7.1,1.56-13.57-0.17-19.54-4.19c-2.74-1.85-5.04-4.2-6.91-6.97c-0.34-0.5-0.68-0.67-1.26-0.58c-2.66,0.42-5.11-0.23-7.41-1.61
	c-0.24-0.14-0.69-0.19-0.91-0.06c-3.3,1.91-6.57,3.87-9.85,5.81c3.49,4.59,12.78,10.22,24.23,6.47c0.34,0.99,0.68,1.99,1.06,3.11
	c-5.11,1.8-10.21,1.97-15.35,0.55c-5.12-1.41-9.41-4.23-12.94-8.35c-1.44,0.85-2.84,1.68-4.24,2.51c7.13,9.68,23.58,16.62,39.5,7.61
	c0.51,0.91,1.03,1.83,1.6,2.84c-7.47,4.31-15.34,5.69-23.65,4.04c-8.29-1.65-15.06-5.98-20.38-12.76c-1.39,0.82-2.74,1.62-4.09,2.41
	c-1.49,0.88-2.32,0.62-3.03-1c-1.37-3.07-1.09-6.17-0.15-9.28c0.23-0.78,0.5-1.57,0.89-2.27c0.46-0.83,0.46-1.58,0.22-2.49
	c-4.61-17.09,4.39-35.43,20.51-41.82C62.69,41.8,62.79,41.8,63.02,41.75z M73.59,62.93c2.77-0.32,5.24,0.25,7.52,1.6
	c0.08-0.08,0.14-0.11,0.17-0.16c0.08-0.18,0.16-0.36,0.23-0.54c1.81-4.53,2.27-9.21,1.37-14.01c-0.79-4.26-2.44-8.09-5.54-11.15
	c-1.05-1.04-2.23-1.91-3.76-2.31V62.93z M80.61,84.83c0.18,0.28,0.29,0.51,0.45,0.71c4.73,6.08,10.85,9.34,18.45,9.54
	c3.16,0.08,6.13-0.61,8.73-2.87c-7.51-4.45-14.95-8.86-22.48-13.31C84.68,81.54,82.98,83.47,80.61,84.83z M75.22,66.2
	c-4.49-0.03-8.15,3.66-8.21,8.28c-0.06,4.59,3.67,8.44,8.17,8.45c4.45,0.01,8.17-3.79,8.17-8.35C83.34,69.98,79.71,66.23,75.22,66.2
	z M56.28,87.67c3.37-2,6.63-3.93,9.93-5.89c-1.74-2.3-2.42-4.84-2.52-7.6c-3.9,0.43-7.4,1.69-10.59,3.85
	c-0.19,0.13-0.39,0.47-0.35,0.67C53.27,81.93,54.45,84.89,56.28,87.67z M49.05,91.95c1.6-0.95,2.96-1.76,4.16-2.47
	c-1.23-2.91-2.43-5.72-3.71-8.74c-1.09,1.42-2.22,2.88-3.32,4.36c-0.1,0.13-0.05,0.45,0.03,0.64C47.13,87.78,48.06,89.8,49.05,91.95
	z M46.34,93.55c-0.77-1.41-1.47-2.69-2.24-4.09c-0.59,1.93-0.79,3.69-0.35,5.62C44.67,94.53,45.49,94.06,46.34,93.55z"/>
<path class="st0" d="M108.44,81.71c-1.03-0.21-2.06-0.42-3.07-0.63c2.1-14.46-2.98-25.63-15.16-33.69c0.51-0.87,1.04-1.78,1.57-2.69
	C105.13,52.12,111.54,68.01,108.44,81.71"/>
<path class="st0" d="M90.21,58.09c0.76-0.82,1.44-1.56,2.21-2.39c5.69,5.17,8.61,11.44,8.79,19h-3.3c-0.06-3.12-0.68-6.15-2.01-9.03
	C94.57,62.79,92.68,60.3,90.21,58.09"/>
<path class="st0" d="M75.19,79.71c-2.76-0.02-5.03-2.33-4.98-5.07c0.05-2.74,2.3-4.95,5.02-4.93c2.76,0.01,5.03,2.32,4.98,5.07
	C80.15,77.51,77.91,79.72,75.19,79.71 M75.2,76.35c0.93,0.01,1.66-0.73,1.65-1.66c-0.01-0.89-0.69-1.6-1.58-1.63
	c-0.93-0.03-1.68,0.68-1.7,1.61C73.55,75.6,74.27,76.35,75.2,76.35"/>
</svg>
