<?xml version="1.0" encoding="utf-8"?>
<!-- Generator: Adobe Illustrator 23.0.2, SVG Export Plug-In . SVG Version: 6.00 Build 0)  -->
<svg version="1.1" id="Layer_1" xmlns="http://www.w3.org/2000/svg" xmlns:xlink="http://www.w3.org/1999/xlink" x="0px" y="0px"
	 viewBox="0 0 149.24 149.24" style="enable-background:new 0 0 149.24 149.24;" xml:space="preserve">
<style type="text/css">
	.st0{fill:none;}
	.st1{fill-rule:evenodd;clip-rule:evenodd;fill:#00BFF3;}
</style>
<rect x="-667.79" y="-2243.29" class="st0" width="1200" height="4580"/>
<path class="st1" d="M70.93,119.01c-3.19-1.28-2.47-4.16-2.54-6.84c-1.34,0-2.61,0-3.88,0c-3.03-0.01-4.4-1.4-4.4-4.5
	c0-1.21-0.13-2.43,0.59-3.53c0.09-0.14,0.05-0.45-0.05-0.62c-0.88-1.6-0.6-3.33-0.43-5c0.11-1.08,0.84-1.92,1.79-2.43
	c0.46-0.25,0.63-0.52,0.62-1.06c-0.04-1.77-0.01-3.54-0.01-5.31c0-2.75-1.16-4.8-3.42-6.31c-7.19-4.81-11.6-11.56-13.05-20.23
	c-2.27-13.52,5.38-27.3,17.93-32.27c2.16-0.86,4.48-1.31,6.76-1.83c1.17-0.27,1.91,0.31,2,1.25c0.08,0.88-0.53,1.47-1.65,1.66
	c-10.87,1.92-18.14,8.23-21.43,18.97c-3.42,11.16,1.04,23.34,10.64,29.69c3.53,2.34,5.27,5.49,5.13,9.78
	c-0.06,1.67-0.01,3.34-0.01,5.08h18.52c0-0.63,0-1.27,0-1.92c0.01-1.67-0.07-3.35,0.07-5.01c0.29-3.28,1.89-5.79,4.59-7.57
	c4.84-3.19,8.4-7.48,10.42-13.01c0.66-1.8,0.98-3.72,1.46-5.59c0.04-0.16,0.05-0.32,0.08-0.48c0.22-1.01,0.82-1.5,1.66-1.38
	c0.83,0.12,1.29,0.79,1.17,1.82c-0.39,3.32-1.36,6.46-2.84,9.44c-2.31,4.66-5.58,8.49-9.88,11.31c-2.69,1.76-4,4.13-3.86,7.38
	c0.06,1.51-0.02,3.02,0.04,4.52c0.01,0.34,0.25,0.79,0.52,0.97c1.3,0.85,2.01,2,1.97,3.59c-0.03,1.36,0.22,2.77-0.58,4.02
	c-0.09,0.14-0.05,0.45,0.04,0.61c0.87,1.61,0.64,3.34,0.43,5c-0.21,1.65-1.73,2.86-3.42,2.92c-1.53,0.05-3.07,0.01-4.75,0.01
	c0,0.83-0.06,1.58,0.01,2.31c0.21,2.15-0.59,3.68-2.54,4.54H70.93z M74.83,98.54h-9.61c-2.23,0-2.23,0-2.22,2.24
	c0,1.49,0.14,1.63,1.59,1.63c6.5,0,13.01,0,19.52,0c2.5,0,2.5,0,2.46-2.51c-0.02-1.19-0.18-1.36-1.35-1.36
	C81.75,98.54,78.29,98.54,74.83,98.54z M74.77,109.22h9.61c2.19,0,2.19,0,2.19-2.29c-0.01-1.45-0.12-1.57-1.55-1.57
	c-6.57,0-13.13,0-19.7,0c-2.35,0-2.35,0-2.33,2.43c0.01,1.25,0.17,1.41,1.4,1.42C67.85,109.23,71.31,109.22,74.77,109.22z
	 M78.26,112.25h-6.98c0,1.08-0.05,2.09,0.03,3.1c0.02,0.26,0.43,0.68,0.67,0.69c1.85,0.06,3.71,0.06,5.57,0
	c0.24-0.01,0.66-0.43,0.68-0.69C78.31,114.34,78.26,113.32,78.26,112.25z"/>
<path class="st1" d="M61.03,65.85c-0.32-0.81-0.54-1.5-0.87-2.13c-0.13-0.24-0.51-0.45-0.79-0.46c-1.15-0.05-2.3,0-3.46-0.03
	c-1.48-0.03-2.26-0.81-2.28-2.31c-0.02-1.64-0.02-3.28,0-4.92c0.02-1.41,0.78-2.18,2.15-2.21c1.18-0.02,2.37-0.03,3.55,0
	c0.49,0.01,0.71-0.16,0.9-0.64c0.72-1.95,0.75-1.94-0.68-3.4c-0.52-0.53-1.06-1.05-1.56-1.6c-0.89-0.99-0.9-2.08,0.02-3.06
	c1.13-1.2,2.29-2.38,3.46-3.55c1.01-1,2.1-0.98,3.13,0.05c0.96,0.96,1.89,1.96,2.86,2.98c0.85-0.36,1.67-0.7,2.52-1.06
	c0-1.35-0.01-2.69,0-4.04c0.01-1.7,0.74-2.45,2.41-2.46c1.5-0.01,3.01-0.02,4.51,0c1.54,0.02,2.28,0.8,2.3,2.38
	c0.01,1.31,0.01,2.62,0.01,3.93c0,0.06,0.03,0.13,0.05,0.2c0.79,0.33,1.58,0.67,2.51,1.06c0.88-0.94,1.77-1.93,2.7-2.87
	c1.19-1.21,2.23-1.22,3.41-0.03c1.07,1.08,2.14,2.17,3.19,3.27c1.07,1.12,1.07,2.22-0.01,3.35c-0.78,0.82-1.56,1.65-2.39,2.42
	c-0.4,0.37-0.36,0.67-0.23,1.18c0.39,1.63,1.33,2.16,2.89,1.89c0.69-0.12,1.41-0.03,2.11-0.01c1.32,0.04,2.1,0.8,2.13,2.13
	c0.03,1.7,0.03,3.41,0,5.11c-0.02,1.32-0.8,2.13-2.1,2.18c-1.18,0.04-2.37,0.04-3.55,0c-0.53-0.02-0.71,0.21-0.98,0.67
	c-0.84,1.4-0.58,2.42,0.69,3.35c0.59,0.43,1.07,1.03,1.57,1.59c0.89,1,0.92,2.1,0.01,3.07c-1.15,1.23-2.33,2.44-3.53,3.61
	c-0.94,0.92-2.05,0.89-2.99-0.03c-0.84-0.81-1.65-1.65-2.44-2.5c-0.37-0.4-0.67-0.54-1.23-0.27c-1.79,0.84-1.8,0.81-1.8,2.86
	c0,0.79,0.03,1.57-0.01,2.36c-0.06,1.21-0.84,2.03-2.02,2.06c-1.7,0.04-3.39,0.04-5.09,0c-1.28-0.02-2.07-0.86-2.1-2.19
	c-0.03-1.18-0.03-2.36,0-3.54c0.02-0.56-0.17-0.79-0.67-1.09c-1.38-0.84-2.37-0.57-3.28,0.73c-0.44,0.63-1.05,1.15-1.62,1.67
	c-0.89,0.82-1.99,0.83-2.85-0.01c-1.23-1.2-2.43-2.43-3.6-3.68c-0.9-0.96-0.88-2.09,0.05-3.06C59.02,67.79,60.05,66.82,61.03,65.85z
	 M76.35,77.03c0-1.46,0-2.83,0-4.2c0-1.31,0.3-1.65,1.47-2.06c1.02-0.36,2.03-0.78,3.01-1.26c1.14-0.57,1.55-0.55,2.46,0.38
	c0.96,0.99,1.91,2,2.85,2.99c0.89-0.9,1.66-1.67,2.53-2.55c-1.04-1.04-2.06-2.08-3.09-3.1c-0.67-0.67-0.72-1.36-0.3-2.22
	c0.51-1.05,0.95-2.14,1.33-3.24c0.41-1.19,0.7-1.46,1.93-1.47c1.37-0.01,2.73,0,4.12,0v-3.54c-1.48,0-2.89,0-4.3,0
	c-0.88,0-1.39-0.42-1.68-1.3c-0.38-1.14-0.83-2.26-1.34-3.35c-0.52-1.12-0.51-1.54,0.37-2.43c0.98-0.99,1.98-1.96,2.94-2.91
	c-0.86-0.9-1.64-1.72-2.49-2.61c-0.98,1.02-1.93,2.03-2.9,3.02c-0.87,0.89-1.3,0.91-2.38,0.37c-1-0.5-2.04-0.94-3.09-1.32
	c-1.15-0.41-1.43-0.72-1.43-1.97c-0.01-1.4,0-2.8,0-4.23h-3.46c0,1.51-0.01,2.98,0,4.44c0.01,0.92-0.42,1.42-1.26,1.72
	c-1.11,0.39-2.21,0.85-3.27,1.37c-1.08,0.52-1.5,0.51-2.38-0.39c-0.97-1-1.92-2.01-2.87-3.01c-0.88,0.9-1.67,1.7-2.5,2.56
	c0.98,0.99,1.96,1.97,2.93,2.97c0.86,0.89,0.88,1.33,0.35,2.44c-0.47,1-0.89,2.03-1.24,3.07c-0.42,1.26-0.75,1.56-2.07,1.56
	c-1.33,0-2.67,0-4.02,0v3.54c1.42,0,2.79-0.01,4.15,0c1.21,0.01,1.51,0.29,1.92,1.48c0.35,1.05,0.76,2.08,1.24,3.07
	c0.56,1.17,0.55,1.58-0.36,2.52c-0.96,1-1.94,1.98-2.91,2.96c0.84,0.87,1.6,1.66,2.47,2.56c1.02-1.06,2.03-2.1,3.02-3.16
	c0.65-0.7,1.34-0.73,2.17-0.32c0.97,0.49,1.96,0.96,2.99,1.31c1.4,0.48,1.64,0.72,1.64,2.22c0,1.36,0,2.72,0,4.09H76.35z"/>
<path class="st1" d="M78.44,30.02c4.12,0.5,8.12,1.87,11.74,4.21c7.59,4.9,12.1,11.81,13.41,20.76c0.17,1.16-0.3,1.91-1.22,2.02
	c-0.85,0.1-1.48-0.48-1.64-1.63c-0.67-4.88-2.51-9.27-5.66-13.08c-4.34-5.25-9.91-8.38-16.69-9.36c-1.29-0.19-1.95-0.88-1.72-1.83
	C76.83,30.39,77.43,29.98,78.44,30.02"/>
<path class="st1" d="M73.85,22c0-0.8-0.03-1.6,0.01-2.4c0.04-0.96,0.55-1.56,1.27-1.58c0.73-0.01,1.28,0.58,1.3,1.54
	c0.04,1.63,0.04,3.27,0,4.9c-0.02,0.93-0.6,1.55-1.31,1.53c-0.7-0.02-1.2-0.64-1.27-1.59c0-0.07,0-0.13,0-0.2
	C73.85,23.46,73.85,22.73,73.85,22L73.85,22z"/>
<rect x="-953.38" y="-2248.99" class="st0" width="1200" height="4580"/>
<path class="st1" d="M38.54,60c-0.8,0-1.6,0.03-2.4-0.01c-0.88-0.04-1.48-0.63-1.52-1.4c-0.04-0.8,0.58-1.52,1.49-1.54
	c1.66-0.05,3.33-0.05,5,0c0.94,0.03,1.53,0.68,1.51,1.52c-0.02,0.83-0.62,1.38-1.58,1.44c-0.07,0-0.13,0-0.2,0
	C40.07,60.01,39.31,60.01,38.54,60L38.54,60z"/>
<path class="st1" d="M110.52,60.01c-0.77,0-1.53,0.02-2.3-0.01c-0.97-0.03-1.57-0.59-1.6-1.42c-0.03-0.84,0.55-1.51,1.48-1.53
	c1.66-0.05,3.33-0.05,5,0c0.91,0.02,1.54,0.72,1.52,1.52c-0.03,0.81-0.65,1.39-1.6,1.43C112.19,60.03,111.35,60.01,110.52,60.01"/>
<path class="st1" d="M103.62,85.86c-0.28,0.35-0.51,0.9-0.9,1.06c-0.39,0.16-1.09,0.12-1.38-0.14c-1.18-1.08-2.29-2.25-3.37-3.45
	c-0.51-0.57-0.46-1.27,0.08-1.84c0.5-0.53,1.17-0.65,1.69-0.15c1.21,1.15,2.34,2.38,3.49,3.59
	C103.4,85.11,103.44,85.42,103.62,85.86"/>
<path class="st1" d="M46.75,87.01c-0.34-0.26-0.87-0.48-1.02-0.84c-0.16-0.4-0.17-1.1,0.09-1.38c1.1-1.21,2.3-2.33,3.52-3.44
	c0.54-0.49,1.22-0.42,1.77,0.06c0.55,0.49,0.69,1.17,0.21,1.69c-1.16,1.24-2.41,2.39-3.66,3.55C47.49,86.83,47.17,86.86,46.75,87.01
	"/>
<path class="st1" d="M46.77,30.01c0.53,0.29,0.95,0.44,1.25,0.7c1.05,0.95,2.06,1.92,3.07,2.91c0.67,0.65,0.7,1.44,0.13,1.99
	c-0.56,0.54-1.43,0.53-2.1-0.08c-1.08-1-2.18-1.98-3.17-3.07c-0.3-0.33-0.41-1.01-0.29-1.45C45.79,30.64,46.35,30.38,46.77,30.01"/>
<path class="st1" d="M98.69,36.01c-0.31-0.25-0.85-0.48-0.99-0.85c-0.15-0.41-0.12-1.11,0.16-1.41c1.09-1.2,2.27-2.31,3.47-3.4
	c0.54-0.49,1.22-0.43,1.77,0.05c0.55,0.49,0.71,1.17,0.21,1.7c-1.17,1.24-2.43,2.41-3.68,3.58C99.47,35.86,99.14,35.87,98.69,36.01"
	/>
<path class="st1" d="M74.59,50.01c4.44-0.02,8.01,3.51,8.03,7.93c0.02,4.46-3.57,8.07-8.02,8.07c-4.4-0.01-7.98-3.6-7.98-8
	C66.62,53.57,70.15,50.03,74.59,50.01 M79.62,58c0-2.78-2.2-4.99-4.98-5c-2.79-0.01-5.01,2.18-5.03,4.95
	c-0.02,2.82,2.23,5.08,5.03,5.07C77.4,63.01,79.62,60.77,79.62,58"/>
</svg>
