<?xml version="1.0" encoding="utf-8"?>
<!-- Generator: Adobe Illustrator 23.0.2, SVG Export Plug-In . SVG Version: 6.00 Build 0)  -->
<svg version="1.1" id="Layer_1" xmlns="http://www.w3.org/2000/svg" xmlns:xlink="http://www.w3.org/1999/xlink" x="0px" y="0px"
	 viewBox="0 0 82 57" style="enable-background:new 0 0 82 57;" xml:space="preserve">
<style type="text/css">
	.st0{fill:none;}
	.st1{opacity:0.7;fill-rule:evenodd;clip-rule:evenodd;}
	.st2{fill-rule:evenodd;clip-rule:evenodd;fill:#FFFFFF;}
</style>
<rect class="st0" width="82" height="57"/>
<path class="st1" d="M0,33.36V23.6c0.04-0.29,0.1-0.58,0.13-0.87c0.18-2.35,0.28-4.71,0.53-7.05c0.38-3.48,1.05-6.9,2.68-10.05
	c1.46-2.83,3.61-4.69,6.82-4.98c2.71-0.25,5.42-0.5,8.14-0.51c13.1-0.09,26.2-0.15,39.3-0.12c4.45,0.01,8.9,0.28,13.35,0.5
	c3.66,0.19,6.21,2.07,7.83,5.41c1.67,3.45,2.33,7.14,2.68,10.89c0.75,8.2,0.77,16.4-0.15,24.59c-0.38,3.43-1.06,6.79-2.67,9.88
	c-1.36,2.61-3.29,4.45-6.25,4.94c-1.21,0.2-2.43,0.37-3.65,0.4c-5.68,0.16-11.36,0.39-17.04,0.37c-12.83-0.05-25.66-0.22-38.49-0.38
	c-2.08-0.03-4.17-0.25-6.07-1.23c-2.38-1.23-3.63-3.45-4.58-5.84c-1.48-3.71-1.91-7.65-2.22-11.59C0.2,36.42,0.11,34.89,0,33.36"/>
<path class="st2" d="M30.79,12.89v31.17c8.54-5.21,16.99-10.36,25.56-15.58C47.76,23.24,39.32,18.09,30.79,12.89"/>
</svg>
